PathFileType	3	(X/Y/Z)	F:\ViconData\AntennenMessung\Messung1\Session1\ID19.trc
DataRate	CameraRate	NumFrames	NumMarkers	Units	OrigDataRate	OrigDataStartFrame	OrigNumFrames
120.0	120.0	4	70	mm	120.0	707	942	
Frame#	Time	Ashort			Along			Atop			A4			Bshort			Blong			Btop			B4			Cshort			Clong			Ctop			C4			Dshort			Dlong			Dtop			D4			Eshort			Elong			Etop			E4			Fshort			Flong			Ftop			F4			Gshort			Glong			Gtop			G4			Hshort			Hlong			Htop			H4			I1			I2			I3			I4			I5			WandAshort			WandAlong			WandAtop			WandA4			WandA15			WandBshort			WandB4			WandB5			WandBtop			WandBlong			WandCshort			WandClong			WandCtop			WandC4			WandC5			Acenter			Aantenna			Bcenter			Bantenna			Ccenter			Cantenna			Dcenter			Dantenna			Ecenter			Eantenna			Fcenter			Fantenna			Gcenter			Gantenna			Hcenter			Hantenna			Icenter			Iantenna			
		X1	Y1	Z1	X2	Y2	Z2	X3	Y3	Z3	X4	Y4	Z4	X5	Y5	Z5	X6	Y6	Z6	X7	Y7	Z7	X8	Y8	Z8	X9	Y9	Z9	X10	Y10	Z10	X11	Y11	Z11	X12	Y12	Z12	X13	Y13	Z13	X14	Y14	Z14	X15	Y15	Z15	X16	Y16	Z16	X17	Y17	Z17	X18	Y18	Z18	X19	Y19	Z19	X20	Y20	Z20	X21	Y21	Z21	X22	Y22	Z22	X23	Y23	Z23	X24	Y24	Z24	X25	Y25	Z25	X26	Y26	Z26	X27	Y27	Z27	X28	Y28	Z28	X29	Y29	Z29	X30	Y30	Z30	X31	Y31	Z31	X32	Y32	Z32	X33	Y33	Z33	X34	Y34	Z34	X35	Y35	Z35	X36	Y36	Z36	X37	Y37	Z37	X38	Y38	Z38	X39	Y39	Z39	X40	Y40	Z40	X41	Y41	Z41	X42	Y42	Z42	X43	Y43	Z43	X44	Y44	Z44	X45	Y45	Z45	X46	Y46	Z46	X47	Y47	Z47	X48	Y48	Z48	X49	Y49	Z49	X50	Y50	Z50	X51	Y51	Z51	X52	Y52	Z52	X53	Y53	Z53	X54	Y54	Z54	X55	Y55	Z55	X56	Y56	Z56	X57	Y57	Z57	X58	Y58	Z58	X59	Y59	Z59	X60	Y60	Z60	X61	Y61	Z61	X62	Y62	Z62	X63	Y63	Z63	X64	Y64	Z64	X65	Y65	Z65	X66	Y66	Z66	X67	Y67	Z67	X68	Y68	Z68	X69	Y69	Z69	X70	Y70	Z70	
707	5.8833333	-1038.2512	214.47757	-1644.2028	-1109.3893	204.05118	-1599.2904	-1063.952	172.57761	-1625.4087	-1054.2194	262.26578	-1634.9642	-1352.9711	235.0313	1003.6779	-1281.401	227.21671	1052.4885	-1322.7272	193.86777	1020.9886	-1284.7361	287.87372	1052.8071	813.92841	187.7209	1209.4308	892.7207	179.01427	1178.8525	844.66693	145.41106	1198.3351	860.73431	292.5235	1167.549	1115.7084	209.81967	-1401.8124	1056.1279	194.03865	-1460.4624	1095.1154	162.32616	-1423.9639	1069.8024	238.64153	-1425.8201	-1204.5537	1685.946	-1563.1954	-1129.17	1688.3025	-1606.0275	-1173.2327	1724.4288	-1581.9498	-1134.0839	1580.9832	-1603.8678	-1239.6964	1699.2545	1119.5109	-1308.3076	1698.7878	1068.791	-1270.3988	1736.2729	1096.8552	-1245.5389	1592.8441	1110.7094	988.8822	1664.2472	1162.2253	957.42419	1700.3588	1183.832	922.71954	1662.0024	1215.0433	939.80725	1659.4346	1159.861	998.94763	1668.4734	-1579.4972	1058.6737	1669.96	-1518.683	1024.907	1708.0251	-1551.1584	1059.1936	1672.1241	-1585.4919	-186.31671	163.26265	-148.5634	-189.25162	171.80701	-64.549896	-186.75696	127.13319	-106.03275	-155.33383	168.0807	-111.71287	-236.12656	164.96718	-113.56409																																														-1069.0293	209.96654	-1624.7711	-1074.2767	248.60631	-1624.1123	-1321.4594	231.59058	1025.1689	-1320.1571	270.3317	1029.462	848.08667	183.94635	1196.1744	851.52869	222.73326	1193.9998	1088.7472	202.6785	-1428.3524	1082.7025	240.98137	-1432.5181	-1171.9358	1686.9656	-1581.7285	-1170.5865	1647.9896	-1581.4984	-1270.2156	1699.0469	1096.95	-1270.0237	1660.0474	1097.0491	953.08234	1705.3428	1186.8142	972.82593	1733.525	1168.4581	1026.3351	1669.155	-1551.6107	1027.767	1630.184	-1552.0642	-187.65912	167.17078	-110.13617	-188.5331	205.95779	-114.11142
708	5.8916667	-1038.2405	214.52867	-1644.233	-1109.4045	204.09933	-1599.3146	-1063.7747	173.08311	-1625.6533	-1054.2263	262.26254	-1634.9865	-1352.9557	235.02104	1003.6575	-1281.3652	227.19768	1052.4055	-1322.6658	193.87468	1020.899	-1284.7567	287.81076	1052.822	813.91937	187.67847	1209.566	892.55811	179.1684	1178.8157	844.60132	145.30655	1198.3654	860.71716	292.49496	1167.6522	1115.7181	209.83485	-1401.8143	1056.1217	194.00346	-1460.4318	1095.1263	162.39507	-1423.949	1069.8749	238.71375	-1425.8077	-1204.5922	1685.9529	-1563.1918	-1129.1888	1688.3053	-1606.0211	-1173.2178	1724.4229	-1581.949	-1134.0837	1580.9689	-1603.8702	-1239.6766	1699.2545	1119.5123	-1309.0312	1698.2141	1071.6926	-1270.4031	1736.269	1096.8539	-1244.9618	1593.7705	1105.989	988.88013	1664.2263	1162.2152	957.44373	1700.3452	1183.8701	922.77032	1661.9775	1215.0492	939.74847	1659.3888	1159.9097	998.953	1668.4705	-1579.5004	1058.6436	1669.955	-1518.677	1024.9099	1708.0212	-1551.155	1059.1934	1672.1346	-1585.4873	-186.33366	163.26338	-148.54565	-189.23018	171.81609	-64.558205	-186.68129	127.19872	-105.94469	-155.31425	168.06615	-111.74303	-236.07962	164.97185	-113.6311																																														-1068.7609	210.05579	-1624.9685	-1073.9725	248.69937	-1624.2528	-1321.425	231.57538	1025.1276	-1320.1504	270.31165	1029.4722	847.96246	183.99442	1196.254	851.33301	222.79076	1194.1367	1088.7478	202.67038	-1428.3416	1082.6825	240.96875	-1432.5184	-1171.9323	1686.9718	-1581.7427	-1170.5944	1647.9952	-1581.5278	-1270.7101	1698.7889	1098.1147	-1271.0294	1659.8123	1099.4259	953.12524	1705.3068	1186.8447	972.8714	1733.493	1168.4974	1026.3318	1669.1514	-1551.6018	1027.7574	1630.1801	-1552.0498	-187.66125	167.18347	-110.05025	-188.61183	205.96797	-114.03259
709	5.9	-1038.2096	214.38234	-1644.2621	-1109.4055	204.03677	-1599.2871	-1063.9908	172.61259	-1625.3436	-1054.1979	262.27103	-1634.9719	-1353.0074	235.05299	1003.5772	-1281.3091	227.19388	1052.437	-1322.7905	193.8223	1020.9583	-1284.7632	287.79578	1052.8037	813.90613	187.76405	1209.5265	892.27679	178.57132	1179.2261	844.31299	145.6611	1198.2357	860.72772	292.50299	1167.5294	1115.6743	209.56461	-1401.6548	1056.1351	194.01349	-1460.4363	1095.1024	162.36987	-1423.9572	1069.7957	238.66367	-1425.8564	-1204.6127	1686.01	-1563.0677	-1129.1737	1688.3093	-1606.0485	-1173.2197	1724.4413	-1581.948	-1134.0729	1580.9821	-1603.8945	-1239.6473	1699.2054	1119.5012	-1309.2734	1698.614	1071.8267	-1270.4025	1736.2776	1096.8708	-1244.6195	1594.0171	1106.3824	988.85547	1664.2119	1162.2452	957.4931	1700.3704	1183.8944	922.9765	1661.9622	1215.137	939.82135	1659.3738	1159.8964	998.95367	1668.4585	-1579.4796	1058.6273	1669.9507	-1518.6851	1024.918	1708.0361	-1551.15	1059.1964	1672.1415	-1585.4871	-186.33362	163.24644	-148.55569	-189.24606	171.79303	-64.558319	-186.62605	127.28034	-106.11897	-155.34717	168.06581	-111.71413	-236.13089	164.94487	-113.5885																																														-1069.0521	209.90056	-1624.7786	-1074.2972	248.54181	-1624.193	-1321.4572	231.59464	1025.0775	-1320.0895	270.34094	1029.303	848.04407	183.75972	1196.3276	851.8407	222.52589	1194.3862	1088.7927	202.54338	-1428.1942	1082.774	240.8636	-1432.236	-1171.9305	1687.006	-1581.688	-1170.5884	1648.03	-1581.4175	-1270.9191	1698.9397	1098.0887	-1271.4585	1659.9642	1099.3601	953.28699	1705.2196	1186.7977	973.00787	1733.3641	1168.3594	1026.334	1669.1431	-1551.5851	1027.7527	1630.1713	-1552.021	-187.66312	167.14789	-110.21138	-188.672	205.93105	-114.19248
710	5.9083333	-1038.2152	214.41245	-1644.2733	-1109.4078	204.0751	-1599.2861	-1063.7566	173.10043	-1625.6869	-1054.1917	262.23892	-1634.9446	-1353.0107	235.03391	1003.6743	-1281.3728	227.20222	1052.4509	-1322.7699	193.83	1020.9205	-1284.7528	287.79303	1052.7981	813.84424	187.70337	1209.5199	892.22504	178.54176	1179.1912	844.28558	145.63864	1198.2003	860.69501	292.48123	1167.6451	1115.677	209.55968	-1401.657	1056.1127	193.9919	-1460.3934	1095.1351	162.42116	-1423.9645	1069.8127	238.60947	-1425.8296	-1204.6267	1686.0149	-1563.0519	-1129.1808	1688.286	-1606.0144	-1173.2177	1724.4495	-1581.9502	-1134.0868	1580.978	-1603.8824	-1239.6492	1699.2103	1119.5002	-1309.2422	1698.6199	1071.8352	-1270.373	1736.2422	1096.8453	-1244.7482	1593.726	1106.4956	988.86017	1664.1973	1162.2507	957.37634	1700.3821	1183.8484	922.86182	1661.9703	1215.0486	939.75671	1659.3683	1159.9126	998.91443	1668.4865	-1579.511	1058.63	1669.9384	-1518.6925	1024.8969	1708.0343	-1551.1572	1059.1923	1672.1462	-1585.4935	-186.3226	163.25687	-148.56306	-189.26364	171.78844	-64.571289	-186.82768	127.1559	-106.05189	-155.34674	168.04559	-111.69502	-236.1153	164.94167	-113.61057																																														-1068.6891	209.98753	-1625.0165	-1073.8573	248.63721	-1624.3141	-1321.5051	231.5896	1025.1257	-1320.2075	270.32849	1029.4401	848.00146	183.71086	1196.3029	851.78534	222.47876	1194.3708	1088.7942	202.53358	-1428.1659	1082.7373	240.85077	-1432.1793	-1171.9309	1686.999	-1581.6703	-1170.5917	1648.0231	-1581.379	-1270.9089	1698.9449	1098.09	-1271.4691	1659.9707	1099.3906	953.15991	1705.2281	1186.7406	972.87964	1733.3827	1168.3165	1026.3064	1669.1523	-1551.6129	1027.7191	1630.1807	-1552.0698	-187.66783	167.15926	-110.14469	-188.4825	205.94826	-114.11327
